solid OpenSCAD_Model
  facet normal 0.406739 0.913545 -0
    outer loop
      vertex 161.05 232.878 0
      vertex 158.357 234.077 15
      vertex 161.05 232.878 15
    endloop
  endfacet
  facet normal 0.406739 0.913545 0
    outer loop
      vertex 158.357 234.077 15
      vertex 161.05 232.878 0
      vertex 158.357 234.077 0
    endloop
  endfacet
  facet normal 0 -1 0
    outer loop
      vertex 10.5261 119.311 0
      vertex 155.474 119.311 15
      vertex 10.5261 119.311 15
    endloop
  endfacet
  facet normal 0 -1 -0
    outer loop
      vertex 155.474 119.311 15
      vertex 10.5261 119.311 0
      vertex 155.474 119.311 0
    endloop
  endfacet
  facet normal 0 0 -1
    outer loop
      vertex 155.474 119.311 0
      vertex 168.1 133.333 0
      vertex 167.792 130.402 0
    endloop
  endfacet
  facet normal -0 0 -1
    outer loop
      vertex 168.1 133.333 0
      vertex 155.474 119.311 0
      vertex 168.1 220.667 0
    endloop
  endfacet
  facet normal 0 0 -1
    outer loop
      vertex 155.474 119.311 0
      vertex 167.792 130.402 0
      vertex 166.881 127.598 0
    endloop
  endfacet
  facet normal 0 0 -1
    outer loop
      vertex 155.474 234.689 0
      vertex 168.1 220.667 0
      vertex 155.474 119.311 0
    endloop
  endfacet
  facet normal 0 0 -1
    outer loop
      vertex 155.474 119.311 0
      vertex 166.881 127.598 0
      vertex 165.407 125.046 0
    endloop
  endfacet
  facet normal 0 0 -1
    outer loop
      vertex 168.1 220.667 0
      vertex 155.474 234.689 0
      vertex 167.792 223.598 0
    endloop
  endfacet
  facet normal 0 0 -1
    outer loop
      vertex 155.474 119.311 0
      vertex 165.407 125.046 0
      vertex 163.435 122.855 0
    endloop
  endfacet
  facet normal 0 0 -1
    outer loop
      vertex 167.792 223.598 0
      vertex 155.474 234.689 0
      vertex 166.881 226.402 0
    endloop
  endfacet
  facet normal 0 0 -1
    outer loop
      vertex 155.474 119.311 0
      vertex 163.435 122.855 0
      vertex 161.05 121.122 0
    endloop
  endfacet
  facet normal 0 0 -1
    outer loop
      vertex 166.881 226.402 0
      vertex 155.474 234.689 0
      vertex 165.407 228.954 0
    endloop
  endfacet
  facet normal 0 0 -1
    outer loop
      vertex 155.474 119.311 0
      vertex 161.05 121.122 0
      vertex 158.357 119.923 0
    endloop
  endfacet
  facet normal 0 0 -1
    outer loop
      vertex 165.407 228.954 0
      vertex 155.474 234.689 0
      vertex 163.435 231.145 0
    endloop
  endfacet
  facet normal 0 0 -1
    outer loop
      vertex 163.435 231.145 0
      vertex 155.474 234.689 0
      vertex 161.05 232.878 0
    endloop
  endfacet
  facet normal 0 0 -1
    outer loop
      vertex 161.05 232.878 0
      vertex 155.474 234.689 0
      vertex 158.357 234.077 0
    endloop
  endfacet
  facet normal 0 0 -1
    outer loop
      vertex 10.5261 119.311 0
      vertex 155.474 234.689 0
      vertex 155.474 119.311 0
    endloop
  endfacet
  facet normal 0 0 -1
    outer loop
      vertex 10.5261 119.311 0
      vertex 10.5261 234.689 0
      vertex 155.474 234.689 0
    endloop
  endfacet
  facet normal 0 0 -1
    outer loop
      vertex -2.1 133.333 0
      vertex 10.5261 119.311 0
      vertex 7.64286 119.923 0
    endloop
  endfacet
  facet normal 0 0 -1
    outer loop
      vertex 10.5261 119.311 0
      vertex -2.1 133.333 0
      vertex 10.5261 234.689 0
    endloop
  endfacet
  facet normal 0 0 -1
    outer loop
      vertex -2.1 133.333 0
      vertex 7.64286 119.923 0
      vertex 4.95 121.122 0
    endloop
  endfacet
  facet normal 0 0 -1
    outer loop
      vertex -2.1 220.667 0
      vertex 10.5261 234.689 0
      vertex -2.1 133.333 0
    endloop
  endfacet
  facet normal 0 0 -1
    outer loop
      vertex -2.1 133.333 0
      vertex 4.95 121.122 0
      vertex 2.56526 122.855 0
    endloop
  endfacet
  facet normal 0 0 -1
    outer loop
      vertex 10.5261 234.689 0
      vertex -2.1 220.667 0
      vertex 7.64286 234.077 0
    endloop
  endfacet
  facet normal 0 0 -1
    outer loop
      vertex -2.1 133.333 0
      vertex 2.56526 122.855 0
      vertex 0.59286 125.046 0
    endloop
  endfacet
  facet normal 0 0 -1
    outer loop
      vertex 7.64286 234.077 0
      vertex -2.1 220.667 0
      vertex 4.95 232.878 0
    endloop
  endfacet
  facet normal 0 0 -1
    outer loop
      vertex -2.1 133.333 0
      vertex 0.59286 125.046 0
      vertex -0.88099 127.598 0
    endloop
  endfacet
  facet normal 0 0 -1
    outer loop
      vertex 4.95 232.878 0
      vertex -2.1 220.667 0
      vertex 2.56526 231.145 0
    endloop
  endfacet
  facet normal 0 0 -1
    outer loop
      vertex -2.1 133.333 0
      vertex -0.88099 127.598 0
      vertex -1.79188 130.402 0
    endloop
  endfacet
  facet normal 0 0 -1
    outer loop
      vertex 2.56526 231.145 0
      vertex -2.1 220.667 0
      vertex 0.59286 228.954 0
    endloop
  endfacet
  facet normal 0 0 -1
    outer loop
      vertex 0.59286 228.954 0
      vertex -2.1 220.667 0
      vertex -0.88099 226.402 0
    endloop
  endfacet
  facet normal 0 0 -1
    outer loop
      vertex -0.88099 226.402 0
      vertex -2.1 220.667 0
      vertex -1.79188 223.598 0
    endloop
  endfacet
  facet normal -1 0 0
    outer loop
      vertex -2.1 133.333 0
      vertex -2.1 220.667 15
      vertex -2.1 220.667 0
    endloop
  endfacet
  facet normal -1 -0 0
    outer loop
      vertex -2.1 220.667 15
      vertex -2.1 133.333 0
      vertex -2.1 133.333 15
    endloop
  endfacet
  facet normal 0 0 1
    outer loop
      vertex 166.1 220.667 15
      vertex 168.1 220.667 15
      vertex 167.792 223.598 15
    endloop
  endfacet
  facet normal 0 0 1
    outer loop
      vertex 168.1 220.667 15
      vertex 166.1 220.667 15
      vertex 168.1 133.333 15
    endloop
  endfacet
  facet normal 0 0 1
    outer loop
      vertex 165.836 223.182 15
      vertex 167.792 223.598 15
      vertex 166.881 226.402 15
    endloop
  endfacet
  facet normal 0 0 1
    outer loop
      vertex 166.1 133.333 15
      vertex 168.1 133.333 15
      vertex 166.1 220.667 15
    endloop
  endfacet
  facet normal 0 0 1
    outer loop
      vertex 168.1 133.333 15
      vertex 166.1 133.333 15
      vertex 167.792 130.402 15
    endloop
  endfacet
  facet normal 0 0 1
    outer loop
      vertex 167.792 223.598 15
      vertex 165.836 223.182 15
      vertex 166.1 220.667 15
    endloop
  endfacet
  facet normal 0 0 1
    outer loop
      vertex 165.054 225.588 15
      vertex 166.881 226.402 15
      vertex 165.407 228.954 15
    endloop
  endfacet
  facet normal 0 0 1
    outer loop
      vertex 166.881 226.402 15
      vertex 165.054 225.588 15
      vertex 165.836 223.182 15
    endloop
  endfacet
  facet normal 0 0 1
    outer loop
      vertex 165.407 228.954 15
      vertex 163.789 227.779 15
      vertex 165.054 225.588 15
    endloop
  endfacet
  facet normal 0 0 1
    outer loop
      vertex 163.435 231.145 15
      vertex 163.789 227.779 15
      vertex 165.407 228.954 15
    endloop
  endfacet
  facet normal 0 0 1
    outer loop
      vertex 163.435 231.145 15
      vertex 162.096 229.659 15
      vertex 163.789 227.779 15
    endloop
  endfacet
  facet normal 0 0 1
    outer loop
      vertex 161.05 232.878 15
      vertex 162.096 229.659 15
      vertex 163.435 231.145 15
    endloop
  endfacet
  facet normal 0 0 1
    outer loop
      vertex 161.05 232.878 15
      vertex 160.05 231.146 15
      vertex 162.096 229.659 15
    endloop
  endfacet
  facet normal 0 0 1
    outer loop
      vertex 158.357 234.077 15
      vertex 160.05 231.146 15
      vertex 161.05 232.878 15
    endloop
  endfacet
  facet normal 0 0 1
    outer loop
      vertex 158.357 234.077 15
      vertex 157.739 232.174 15
      vertex 160.05 231.146 15
    endloop
  endfacet
  facet normal 0 0 1
    outer loop
      vertex 155.474 234.689 15
      vertex 157.739 232.174 15
      vertex 158.357 234.077 15
    endloop
  endfacet
  facet normal 0 0 1
    outer loop
      vertex 155.474 234.689 15
      vertex 155.265 232.7 15
      vertex 157.739 232.174 15
    endloop
  endfacet
  facet normal 0 0 1
    outer loop
      vertex 155.474 234.689 15
      vertex 10.7352 232.7 15
      vertex 155.265 232.7 15
    endloop
  endfacet
  facet normal -0 0 1
    outer loop
      vertex 10.5261 234.689 15
      vertex 10.7352 232.7 15
      vertex 155.474 234.689 15
    endloop
  endfacet
  facet normal 0 0 1
    outer loop
      vertex 10.5261 234.689 15
      vertex 8.26089 232.174 15
      vertex 10.7352 232.7 15
    endloop
  endfacet
  facet normal -0 0 1
    outer loop
      vertex 7.64286 234.077 15
      vertex 8.26089 232.174 15
      vertex 10.5261 234.689 15
    endloop
  endfacet
  facet normal 0 0 1
    outer loop
      vertex 7.64286 234.077 15
      vertex 5.95 231.146 15
      vertex 8.26089 232.174 15
    endloop
  endfacet
  facet normal -0 0 1
    outer loop
      vertex 4.95 232.878 15
      vertex 5.95 231.146 15
      vertex 7.64286 234.077 15
    endloop
  endfacet
  facet normal 0 0 1
    outer loop
      vertex 4.95 232.878 15
      vertex 3.90352 229.659 15
      vertex 5.95 231.146 15
    endloop
  endfacet
  facet normal -0 0 1
    outer loop
      vertex 2.56526 231.145 15
      vertex 3.90352 229.659 15
      vertex 4.95 232.878 15
    endloop
  endfacet
  facet normal 0 0 1
    outer loop
      vertex 2.56526 231.145 15
      vertex 2.21089 227.779 15
      vertex 3.90352 229.659 15
    endloop
  endfacet
  facet normal -0 0 1
    outer loop
      vertex 0.59286 228.954 15
      vertex 2.21089 227.779 15
      vertex 2.56526 231.145 15
    endloop
  endfacet
  facet normal 0 0 1
    outer loop
      vertex 2.21089 227.779 15
      vertex 0.59286 228.954 15
      vertex 0.946099 225.588 15
    endloop
  endfacet
  facet normal -0 0 1
    outer loop
      vertex -0.88099 226.402 15
      vertex 0.946099 225.588 15
      vertex 0.59286 228.954 15
    endloop
  endfacet
  facet normal 0 0 1
    outer loop
      vertex 0.946099 225.588 15
      vertex -0.88099 226.402 15
      vertex 0.164413 223.182 15
    endloop
  endfacet
  facet normal 0 0 1
    outer loop
      vertex 0.164413 223.182 15
      vertex -1.79188 223.598 15
      vertex -0.0999994 220.667 15
    endloop
  endfacet
  facet normal -0 0 1
    outer loop
      vertex -1.79188 223.598 15
      vertex 0.164413 223.182 15
      vertex -0.88099 226.402 15
    endloop
  endfacet
  facet normal -0 0 1
    outer loop
      vertex 165.836 130.818 15
      vertex 167.792 130.402 15
      vertex 166.1 133.333 15
    endloop
  endfacet
  facet normal 0 0 1
    outer loop
      vertex 167.792 130.402 15
      vertex 165.836 130.818 15
      vertex 166.881 127.598 15
    endloop
  endfacet
  facet normal -0 0 1
    outer loop
      vertex 165.054 128.412 15
      vertex 166.881 127.598 15
      vertex 165.836 130.818 15
    endloop
  endfacet
  facet normal 0 0 1
    outer loop
      vertex 166.881 127.598 15
      vertex 165.054 128.412 15
      vertex 165.407 125.046 15
    endloop
  endfacet
  facet normal -0 0 1
    outer loop
      vertex 163.789 126.221 15
      vertex 165.407 125.046 15
      vertex 165.054 128.412 15
    endloop
  endfacet
  facet normal 0 0 1
    outer loop
      vertex 163.789 126.221 15
      vertex 163.435 122.855 15
      vertex 165.407 125.046 15
    endloop
  endfacet
  facet normal -0 0 1
    outer loop
      vertex 162.096 124.341 15
      vertex 163.435 122.855 15
      vertex 163.789 126.221 15
    endloop
  endfacet
  facet normal 0 0 1
    outer loop
      vertex 162.096 124.341 15
      vertex 161.05 121.122 15
      vertex 163.435 122.855 15
    endloop
  endfacet
  facet normal -0 0 1
    outer loop
      vertex 160.05 122.854 15
      vertex 161.05 121.122 15
      vertex 162.096 124.341 15
    endloop
  endfacet
  facet normal 0 0 1
    outer loop
      vertex 160.05 122.854 15
      vertex 158.357 119.923 15
      vertex 161.05 121.122 15
    endloop
  endfacet
  facet normal -0 0 1
    outer loop
      vertex 157.739 121.826 15
      vertex 158.357 119.923 15
      vertex 160.05 122.854 15
    endloop
  endfacet
  facet normal 0 0 1
    outer loop
      vertex 157.739 121.826 15
      vertex 155.474 119.311 15
      vertex 158.357 119.923 15
    endloop
  endfacet
  facet normal -0 0 1
    outer loop
      vertex 155.265 121.3 15
      vertex 155.474 119.311 15
      vertex 157.739 121.826 15
    endloop
  endfacet
  facet normal -0 0 1
    outer loop
      vertex 10.7352 121.3 15
      vertex 155.474 119.311 15
      vertex 155.265 121.3 15
    endloop
  endfacet
  facet normal 0 0 1
    outer loop
      vertex 10.7352 121.3 15
      vertex 10.5261 119.311 15
      vertex 155.474 119.311 15
    endloop
  endfacet
  facet normal 0 0 1
    outer loop
      vertex 8.26089 121.826 15
      vertex 10.5261 119.311 15
      vertex 10.7352 121.3 15
    endloop
  endfacet
  facet normal 0 0 1
    outer loop
      vertex 8.26089 121.826 15
      vertex 7.64286 119.923 15
      vertex 10.5261 119.311 15
    endloop
  endfacet
  facet normal 0 0 1
    outer loop
      vertex 5.95 122.854 15
      vertex 7.64286 119.923 15
      vertex 8.26089 121.826 15
    endloop
  endfacet
  facet normal 0 0 1
    outer loop
      vertex 5.95 122.854 15
      vertex 4.95 121.122 15
      vertex 7.64286 119.923 15
    endloop
  endfacet
  facet normal 0 0 1
    outer loop
      vertex 3.90352 124.341 15
      vertex 4.95 121.122 15
      vertex 5.95 122.854 15
    endloop
  endfacet
  facet normal 0 0 1
    outer loop
      vertex 3.90352 124.341 15
      vertex 2.56526 122.855 15
      vertex 4.95 121.122 15
    endloop
  endfacet
  facet normal 0 0 1
    outer loop
      vertex 2.21089 126.221 15
      vertex 2.56526 122.855 15
      vertex 3.90352 124.341 15
    endloop
  endfacet
  facet normal 0 0 1
    outer loop
      vertex 0.59286 125.046 15
      vertex 2.21089 126.221 15
      vertex 0.946099 128.412 15
    endloop
  endfacet
  facet normal 0 0 1
    outer loop
      vertex 2.21089 126.221 15
      vertex 0.59286 125.046 15
      vertex 2.56526 122.855 15
    endloop
  endfacet
  facet normal 0 0 1
    outer loop
      vertex -0.88099 127.598 15
      vertex 0.946099 128.412 15
      vertex 0.164413 130.818 15
    endloop
  endfacet
  facet normal 0 0 1
    outer loop
      vertex -1.79188 130.402 15
      vertex 0.164413 130.818 15
      vertex -0.0999994 133.333 15
    endloop
  endfacet
  facet normal 0 0 1
    outer loop
      vertex 0.946099 128.412 15
      vertex -0.88099 127.598 15
      vertex 0.59286 125.046 15
    endloop
  endfacet
  facet normal 0 0 1
    outer loop
      vertex -0.0999994 220.667 15
      vertex -2.1 220.667 15
      vertex -0.0999994 133.333 15
    endloop
  endfacet
  facet normal 0 0 1
    outer loop
      vertex -0.0999994 220.667 15
      vertex -1.79188 223.598 15
      vertex -2.1 220.667 15
    endloop
  endfacet
  facet normal 0 0 1
    outer loop
      vertex -2.1 133.333 15
      vertex -0.0999994 133.333 15
      vertex -2.1 220.667 15
    endloop
  endfacet
  facet normal 0 -0 1
    outer loop
      vertex -1.79188 130.402 15
      vertex -0.0999994 133.333 15
      vertex -2.1 133.333 15
    endloop
  endfacet
  facet normal 0 0 1
    outer loop
      vertex 0.164413 130.818 15
      vertex -1.79188 130.402 15
      vertex -0.88099 127.598 15
    endloop
  endfacet
  facet normal 0.994522 0.104529 0
    outer loop
      vertex 168.1 220.667 15
      vertex 167.792 223.598 0
      vertex 167.792 223.598 15
    endloop
  endfacet
  facet normal 0.994522 0.104529 0
    outer loop
      vertex 167.792 223.598 0
      vertex 168.1 220.667 15
      vertex 168.1 220.667 0
    endloop
  endfacet
  facet normal -0.207912 -0.978148 0
    outer loop
      vertex 7.64286 119.923 0
      vertex 10.5261 119.311 15
      vertex 7.64286 119.923 15
    endloop
  endfacet
  facet normal -0.207912 -0.978148 -0
    outer loop
      vertex 10.5261 119.311 15
      vertex 7.64286 119.923 0
      vertex 10.5261 119.311 0
    endloop
  endfacet
  facet normal -0.994522 -0.104529 0
    outer loop
      vertex -1.79188 130.402 0
      vertex -2.1 133.333 15
      vertex -2.1 133.333 0
    endloop
  endfacet
  facet normal -0.994522 -0.104529 0
    outer loop
      vertex -2.1 133.333 15
      vertex -1.79188 130.402 0
      vertex -1.79188 130.402 15
    endloop
  endfacet
  facet normal 0 1 -0
    outer loop
      vertex 155.474 234.689 0
      vertex 10.5261 234.689 15
      vertex 155.474 234.689 15
    endloop
  endfacet
  facet normal 0 1 0
    outer loop
      vertex 10.5261 234.689 15
      vertex 155.474 234.689 0
      vertex 10.5261 234.689 0
    endloop
  endfacet
  facet normal 1 -0 0
    outer loop
      vertex 168.1 133.333 15
      vertex 168.1 220.667 0
      vertex 168.1 220.667 15
    endloop
  endfacet
  facet normal 1 0 0
    outer loop
      vertex 168.1 220.667 0
      vertex 168.1 133.333 15
      vertex 168.1 133.333 0
    endloop
  endfacet
  facet normal 0.866023 -0.500003 0
    outer loop
      vertex 165.407 125.046 15
      vertex 166.881 127.598 0
      vertex 166.881 127.598 15
    endloop
  endfacet
  facet normal 0.866023 -0.500003 0
    outer loop
      vertex 166.881 127.598 0
      vertex 165.407 125.046 15
      vertex 165.407 125.046 0
    endloop
  endfacet
  facet normal 0.207911 -0.978148 0
    outer loop
      vertex 155.474 119.311 0
      vertex 158.357 119.923 15
      vertex 155.474 119.311 15
    endloop
  endfacet
  facet normal 0.207911 -0.978148 0
    outer loop
      vertex 158.357 119.923 15
      vertex 155.474 119.311 0
      vertex 158.357 119.923 0
    endloop
  endfacet
  facet normal 0.406737 -0.913545 0
    outer loop
      vertex 158.357 119.923 0
      vertex 161.05 121.122 15
      vertex 158.357 119.923 15
    endloop
  endfacet
  facet normal 0.406737 -0.913545 0
    outer loop
      vertex 161.05 121.122 15
      vertex 158.357 119.923 0
      vertex 161.05 121.122 0
    endloop
  endfacet
  facet normal -0.743146 -0.66913 0
    outer loop
      vertex 2.56526 122.855 0
      vertex 0.59286 125.046 15
      vertex 0.59286 125.046 0
    endloop
  endfacet
  facet normal -0.743146 -0.66913 0
    outer loop
      vertex 0.59286 125.046 15
      vertex 2.56526 122.855 0
      vertex 2.56526 122.855 15
    endloop
  endfacet
  facet normal -0.994522 0.104529 0
    outer loop
      vertex -2.1 220.667 0
      vertex -1.79188 223.598 15
      vertex -1.79188 223.598 0
    endloop
  endfacet
  facet normal -0.994522 0.104529 0
    outer loop
      vertex -1.79188 223.598 15
      vertex -2.1 220.667 0
      vertex -2.1 220.667 15
    endloop
  endfacet
  facet normal -0.587786 0.809016 0
    outer loop
      vertex 4.95 232.878 0
      vertex 2.56526 231.145 15
      vertex 4.95 232.878 15
    endloop
  endfacet
  facet normal -0.587786 0.809016 0
    outer loop
      vertex 2.56526 231.145 15
      vertex 4.95 232.878 0
      vertex 2.56526 231.145 0
    endloop
  endfacet
  facet normal 0.207908 0.978148 -0
    outer loop
      vertex 158.357 234.077 0
      vertex 155.474 234.689 15
      vertex 158.357 234.077 15
    endloop
  endfacet
  facet normal 0.207908 0.978148 0
    outer loop
      vertex 155.474 234.689 15
      vertex 158.357 234.077 0
      vertex 155.474 234.689 0
    endloop
  endfacet
  facet normal -0.207909 0.978148 0
    outer loop
      vertex 10.5261 234.689 0
      vertex 7.64286 234.077 15
      vertex 10.5261 234.689 15
    endloop
  endfacet
  facet normal -0.207909 0.978148 0
    outer loop
      vertex 7.64286 234.077 15
      vertex 10.5261 234.689 0
      vertex 7.64286 234.077 0
    endloop
  endfacet
  facet normal 0.743145 0.669131 0
    outer loop
      vertex 165.407 228.954 15
      vertex 163.435 231.145 0
      vertex 163.435 231.145 15
    endloop
  endfacet
  facet normal 0.743145 0.669131 0
    outer loop
      vertex 163.435 231.145 0
      vertex 165.407 228.954 15
      vertex 165.407 228.954 0
    endloop
  endfacet
  facet normal 0.951057 -0.309016 0
    outer loop
      vertex 166.881 127.598 15
      vertex 167.792 130.402 0
      vertex 167.792 130.402 15
    endloop
  endfacet
  facet normal 0.951057 -0.309016 0
    outer loop
      vertex 167.792 130.402 0
      vertex 166.881 127.598 15
      vertex 166.881 127.598 0
    endloop
  endfacet
  facet normal 0.994522 -0.104529 0
    outer loop
      vertex 167.792 130.402 15
      vertex 168.1 133.333 0
      vertex 168.1 133.333 15
    endloop
  endfacet
  facet normal 0.994522 -0.104529 0
    outer loop
      vertex 168.1 133.333 0
      vertex 167.792 130.402 15
      vertex 167.792 130.402 0
    endloop
  endfacet
  facet normal -0.406736 -0.913546 0
    outer loop
      vertex 4.95 121.122 0
      vertex 7.64286 119.923 15
      vertex 4.95 121.122 15
    endloop
  endfacet
  facet normal -0.406736 -0.913546 -0
    outer loop
      vertex 7.64286 119.923 15
      vertex 4.95 121.122 0
      vertex 7.64286 119.923 0
    endloop
  endfacet
  facet normal -0.587784 -0.809018 0
    outer loop
      vertex 2.56526 122.855 0
      vertex 4.95 121.122 15
      vertex 2.56526 122.855 15
    endloop
  endfacet
  facet normal -0.587784 -0.809018 -0
    outer loop
      vertex 4.95 121.122 15
      vertex 2.56526 122.855 0
      vertex 4.95 121.122 0
    endloop
  endfacet
  facet normal -0.866025 -0.5 0
    outer loop
      vertex 0.59286 125.046 0
      vertex -0.88099 127.598 15
      vertex -0.88099 127.598 0
    endloop
  endfacet
  facet normal -0.866025 -0.5 0
    outer loop
      vertex -0.88099 127.598 15
      vertex 0.59286 125.046 0
      vertex 0.59286 125.046 15
    endloop
  endfacet
  facet normal -0.951057 -0.309017 0
    outer loop
      vertex -0.88099 127.598 0
      vertex -1.79188 130.402 15
      vertex -1.79188 130.402 0
    endloop
  endfacet
  facet normal -0.951057 -0.309017 0
    outer loop
      vertex -1.79188 130.402 15
      vertex -0.88099 127.598 0
      vertex -0.88099 127.598 15
    endloop
  endfacet
  facet normal -0.406738 0.913545 0
    outer loop
      vertex 7.64286 234.077 0
      vertex 4.95 232.878 15
      vertex 7.64286 234.077 15
    endloop
  endfacet
  facet normal -0.406738 0.913545 0
    outer loop
      vertex 4.95 232.878 15
      vertex 7.64286 234.077 0
      vertex 4.95 232.878 0
    endloop
  endfacet
  facet normal -0.866025 0.5 0
    outer loop
      vertex -0.88099 226.402 0
      vertex 0.59286 228.954 15
      vertex 0.59286 228.954 0
    endloop
  endfacet
  facet normal -0.866025 0.5 0
    outer loop
      vertex 0.59286 228.954 15
      vertex -0.88099 226.402 0
      vertex -0.88099 226.402 15
    endloop
  endfacet
  facet normal 0.743146 -0.66913 0
    outer loop
      vertex 163.435 122.855 15
      vertex 165.407 125.046 0
      vertex 165.407 125.046 15
    endloop
  endfacet
  facet normal 0.743146 -0.66913 0
    outer loop
      vertex 165.407 125.046 0
      vertex 163.435 122.855 15
      vertex 163.435 122.855 0
    endloop
  endfacet
  facet normal -0.951057 0.309017 0
    outer loop
      vertex -1.79188 223.598 0
      vertex -0.88099 226.402 15
      vertex -0.88099 226.402 0
    endloop
  endfacet
  facet normal -0.951057 0.309017 0
    outer loop
      vertex -0.88099 226.402 15
      vertex -1.79188 223.598 0
      vertex -1.79188 223.598 15
    endloop
  endfacet
  facet normal -0.743144 0.669131 0
    outer loop
      vertex 0.59286 228.954 0
      vertex 2.56526 231.145 15
      vertex 2.56526 231.145 0
    endloop
  endfacet
  facet normal -0.743144 0.669131 0
    outer loop
      vertex 2.56526 231.145 15
      vertex 0.59286 228.954 0
      vertex 0.59286 228.954 15
    endloop
  endfacet
  facet normal 0.587786 -0.809017 0
    outer loop
      vertex 161.05 121.122 0
      vertex 163.435 122.855 15
      vertex 161.05 121.122 15
    endloop
  endfacet
  facet normal 0.587786 -0.809017 0
    outer loop
      vertex 163.435 122.855 15
      vertex 161.05 121.122 0
      vertex 163.435 122.855 0
    endloop
  endfacet
  facet normal 0.587787 0.809016 -0
    outer loop
      vertex 163.435 231.145 0
      vertex 161.05 232.878 15
      vertex 163.435 231.145 15
    endloop
  endfacet
  facet normal 0.587787 0.809016 0
    outer loop
      vertex 161.05 232.878 15
      vertex 163.435 231.145 0
      vertex 161.05 232.878 0
    endloop
  endfacet
  facet normal 0.866023 0.500003 0
    outer loop
      vertex 166.881 226.402 15
      vertex 165.407 228.954 0
      vertex 165.407 228.954 15
    endloop
  endfacet
  facet normal 0.866023 0.500003 0
    outer loop
      vertex 165.407 228.954 0
      vertex 166.881 226.402 15
      vertex 166.881 226.402 0
    endloop
  endfacet
  facet normal 0.951057 0.309016 0
    outer loop
      vertex 167.792 223.598 15
      vertex 166.881 226.402 0
      vertex 166.881 226.402 15
    endloop
  endfacet
  facet normal 0.951057 0.309016 0
    outer loop
      vertex 166.881 226.402 0
      vertex 167.792 223.598 15
      vertex 167.792 223.598 0
    endloop
  endfacet
  facet normal 0 1 -0
    outer loop
      vertex 155.265 121.3 2
      vertex 10.7352 121.3 15
      vertex 155.265 121.3 15
    endloop
  endfacet
  facet normal 0 1 0
    outer loop
      vertex 10.7352 121.3 15
      vertex 155.265 121.3 2
      vertex 10.7352 121.3 2
    endloop
  endfacet
  facet normal 0 0 1
    outer loop
      vertex 155.265 232.7 2
      vertex 166.1 220.667 2
      vertex 165.836 223.182 2
    endloop
  endfacet
  facet normal 0 0 1
    outer loop
      vertex 166.1 220.667 2
      vertex 155.265 232.7 2
      vertex 166.1 133.333 2
    endloop
  endfacet
  facet normal 0 0 1
    outer loop
      vertex 155.265 232.7 2
      vertex 165.836 223.182 2
      vertex 165.054 225.588 2
    endloop
  endfacet
  facet normal 0 0 1
    outer loop
      vertex 155.265 121.3 2
      vertex 166.1 133.333 2
      vertex 155.265 232.7 2
    endloop
  endfacet
  facet normal 0 0 1
    outer loop
      vertex 155.265 232.7 2
      vertex 165.054 225.588 2
      vertex 163.789 227.779 2
    endloop
  endfacet
  facet normal 0 0 1
    outer loop
      vertex 166.1 133.333 2
      vertex 155.265 121.3 2
      vertex 165.836 130.818 2
    endloop
  endfacet
  facet normal 0 0 1
    outer loop
      vertex 155.265 232.7 2
      vertex 163.789 227.779 2
      vertex 162.096 229.659 2
    endloop
  endfacet
  facet normal 0 0 1
    outer loop
      vertex 165.836 130.818 2
      vertex 155.265 121.3 2
      vertex 165.054 128.412 2
    endloop
  endfacet
  facet normal 0 0 1
    outer loop
      vertex 155.265 232.7 2
      vertex 162.096 229.659 2
      vertex 160.05 231.146 2
    endloop
  endfacet
  facet normal 0 0 1
    outer loop
      vertex 165.054 128.412 2
      vertex 155.265 121.3 2
      vertex 163.789 126.221 2
    endloop
  endfacet
  facet normal 0 0 1
    outer loop
      vertex 155.265 232.7 2
      vertex 160.05 231.146 2
      vertex 157.739 232.174 2
    endloop
  endfacet
  facet normal 0 0 1
    outer loop
      vertex 163.789 126.221 2
      vertex 155.265 121.3 2
      vertex 162.096 124.341 2
    endloop
  endfacet
  facet normal 0 0 1
    outer loop
      vertex 162.096 124.341 2
      vertex 155.265 121.3 2
      vertex 160.05 122.854 2
    endloop
  endfacet
  facet normal 0 0 1
    outer loop
      vertex 160.05 122.854 2
      vertex 155.265 121.3 2
      vertex 157.739 121.826 2
    endloop
  endfacet
  facet normal -0 0 1
    outer loop
      vertex 10.7352 232.7 2
      vertex 155.265 121.3 2
      vertex 155.265 232.7 2
    endloop
  endfacet
  facet normal 0 0 1
    outer loop
      vertex 10.7352 232.7 2
      vertex 10.7352 121.3 2
      vertex 155.265 121.3 2
    endloop
  endfacet
  facet normal 0 0 1
    outer loop
      vertex -0.0999994 220.667 2
      vertex 10.7352 232.7 2
      vertex 8.26089 232.174 2
    endloop
  endfacet
  facet normal 0 0 1
    outer loop
      vertex 10.7352 232.7 2
      vertex -0.0999994 220.667 2
      vertex 10.7352 121.3 2
    endloop
  endfacet
  facet normal 0 0 1
    outer loop
      vertex -0.0999994 220.667 2
      vertex 8.26089 232.174 2
      vertex 5.95 231.146 2
    endloop
  endfacet
  facet normal -0 0 1
    outer loop
      vertex -0.0999994 133.333 2
      vertex 10.7352 121.3 2
      vertex -0.0999994 220.667 2
    endloop
  endfacet
  facet normal 0 0 1
    outer loop
      vertex -0.0999994 220.667 2
      vertex 5.95 231.146 2
      vertex 3.90352 229.659 2
    endloop
  endfacet
  facet normal 0 0 1
    outer loop
      vertex 10.7352 121.3 2
      vertex -0.0999994 133.333 2
      vertex 8.26089 121.826 2
    endloop
  endfacet
  facet normal 0 0 1
    outer loop
      vertex -0.0999994 220.667 2
      vertex 3.90352 229.659 2
      vertex 2.21089 227.779 2
    endloop
  endfacet
  facet normal 0 0 1
    outer loop
      vertex 8.26089 121.826 2
      vertex -0.0999994 133.333 2
      vertex 5.95 122.854 2
    endloop
  endfacet
  facet normal 0 0 1
    outer loop
      vertex -0.0999994 220.667 2
      vertex 2.21089 227.779 2
      vertex 0.946099 225.588 2
    endloop
  endfacet
  facet normal 0 0 1
    outer loop
      vertex 5.95 122.854 2
      vertex -0.0999994 133.333 2
      vertex 3.90352 124.341 2
    endloop
  endfacet
  facet normal 0 0 1
    outer loop
      vertex -0.0999994 220.667 2
      vertex 0.946099 225.588 2
      vertex 0.164413 223.182 2
    endloop
  endfacet
  facet normal 0 0 1
    outer loop
      vertex 3.90352 124.341 2
      vertex -0.0999994 133.333 2
      vertex 2.21089 126.221 2
    endloop
  endfacet
  facet normal 0 0 1
    outer loop
      vertex 2.21089 126.221 2
      vertex -0.0999994 133.333 2
      vertex 0.946099 128.412 2
    endloop
  endfacet
  facet normal 0 0 1
    outer loop
      vertex 0.946099 128.412 2
      vertex -0.0999994 133.333 2
      vertex 0.164413 130.818 2
    endloop
  endfacet
  facet normal 1 -0 0
    outer loop
      vertex -0.0999994 133.333 15
      vertex -0.0999994 220.667 2
      vertex -0.0999994 220.667 15
    endloop
  endfacet
  facet normal 1 0 0
    outer loop
      vertex -0.0999994 220.667 2
      vertex -0.0999994 133.333 15
      vertex -0.0999994 133.333 2
    endloop
  endfacet
  facet normal -0.994522 -0.104531 0
    outer loop
      vertex 166.1 220.667 2
      vertex 165.836 223.182 15
      vertex 165.836 223.182 2
    endloop
  endfacet
  facet normal -0.994522 -0.104531 0
    outer loop
      vertex 165.836 223.182 15
      vertex 166.1 220.667 2
      vertex 166.1 220.667 15
    endloop
  endfacet
  facet normal 0.207909 0.978148 -0
    outer loop
      vertex 10.7352 121.3 2
      vertex 8.26089 121.826 15
      vertex 10.7352 121.3 15
    endloop
  endfacet
  facet normal 0.207909 0.978148 0
    outer loop
      vertex 8.26089 121.826 15
      vertex 10.7352 121.3 2
      vertex 8.26089 121.826 2
    endloop
  endfacet
  facet normal 0.994522 0.104528 0
    outer loop
      vertex 0.164413 130.818 15
      vertex -0.0999994 133.333 2
      vertex -0.0999994 133.333 15
    endloop
  endfacet
  facet normal 0.994522 0.104528 0
    outer loop
      vertex -0.0999994 133.333 2
      vertex 0.164413 130.818 15
      vertex 0.164413 130.818 2
    endloop
  endfacet
  facet normal 0 -1 0
    outer loop
      vertex 10.7352 232.7 2
      vertex 155.265 232.7 15
      vertex 10.7352 232.7 15
    endloop
  endfacet
  facet normal 0 -1 -0
    outer loop
      vertex 155.265 232.7 15
      vertex 10.7352 232.7 2
      vertex 155.265 232.7 2
    endloop
  endfacet
  facet normal -0.743145 -0.669131 0
    outer loop
      vertex 163.789 227.779 2
      vertex 162.096 229.659 15
      vertex 162.096 229.659 2
    endloop
  endfacet
  facet normal -0.743145 -0.669131 0
    outer loop
      vertex 162.096 229.659 15
      vertex 163.789 227.779 2
      vertex 163.789 227.779 15
    endloop
  endfacet
  facet normal -1 0 0
    outer loop
      vertex 166.1 133.333 2
      vertex 166.1 220.667 15
      vertex 166.1 220.667 2
    endloop
  endfacet
  facet normal -1 -0 0
    outer loop
      vertex 166.1 220.667 15
      vertex 166.1 133.333 2
      vertex 166.1 133.333 15
    endloop
  endfacet
  facet normal -0.20791 0.978148 0
    outer loop
      vertex 157.739 121.826 2
      vertex 155.265 121.3 15
      vertex 157.739 121.826 15
    endloop
  endfacet
  facet normal -0.20791 0.978148 0
    outer loop
      vertex 155.265 121.3 15
      vertex 157.739 121.826 2
      vertex 155.265 121.3 2
    endloop
  endfacet
  facet normal -0.406736 0.913546 0
    outer loop
      vertex 160.05 122.854 2
      vertex 157.739 121.826 15
      vertex 160.05 122.854 15
    endloop
  endfacet
  facet normal -0.406736 0.913546 0
    outer loop
      vertex 157.739 121.826 15
      vertex 160.05 122.854 2
      vertex 157.739 121.826 2
    endloop
  endfacet
  facet normal 0.743145 0.66913 0
    outer loop
      vertex 3.90352 124.341 15
      vertex 2.21089 126.221 2
      vertex 2.21089 126.221 15
    endloop
  endfacet
  facet normal 0.743145 0.66913 0
    outer loop
      vertex 2.21089 126.221 2
      vertex 3.90352 124.341 15
      vertex 3.90352 124.341 2
    endloop
  endfacet
  facet normal 0.994522 -0.104528 0
    outer loop
      vertex -0.0999994 220.667 15
      vertex 0.164413 223.182 2
      vertex 0.164413 223.182 15
    endloop
  endfacet
  facet normal 0.994522 -0.104528 0
    outer loop
      vertex 0.164413 223.182 2
      vertex -0.0999994 220.667 15
      vertex -0.0999994 220.667 2
    endloop
  endfacet
  facet normal -0.20791 -0.978148 0
    outer loop
      vertex 155.265 232.7 2
      vertex 157.739 232.174 15
      vertex 155.265 232.7 15
    endloop
  endfacet
  facet normal -0.20791 -0.978148 -0
    outer loop
      vertex 157.739 232.174 15
      vertex 155.265 232.7 2
      vertex 157.739 232.174 2
    endloop
  endfacet
  facet normal 0.406737 0.913545 -0
    outer loop
      vertex 8.26089 121.826 2
      vertex 5.95 122.854 15
      vertex 8.26089 121.826 15
    endloop
  endfacet
  facet normal 0.406737 0.913545 0
    outer loop
      vertex 5.95 122.854 15
      vertex 8.26089 121.826 2
      vertex 5.95 122.854 2
    endloop
  endfacet
  facet normal 0.587785 0.809017 -0
    outer loop
      vertex 5.95 122.854 2
      vertex 3.90352 124.341 15
      vertex 5.95 122.854 15
    endloop
  endfacet
  facet normal 0.587785 0.809017 0
    outer loop
      vertex 3.90352 124.341 15
      vertex 5.95 122.854 2
      vertex 3.90352 124.341 2
    endloop
  endfacet
  facet normal 0.866026 0.5 0
    outer loop
      vertex 2.21089 126.221 15
      vertex 0.946099 128.412 2
      vertex 0.946099 128.412 15
    endloop
  endfacet
  facet normal 0.866026 0.5 0
    outer loop
      vertex 0.946099 128.412 2
      vertex 2.21089 126.221 15
      vertex 2.21089 126.221 2
    endloop
  endfacet
  facet normal 0.951056 0.309018 0
    outer loop
      vertex 0.946099 128.412 15
      vertex 0.164413 130.818 2
      vertex 0.164413 130.818 15
    endloop
  endfacet
  facet normal 0.951056 0.309018 0
    outer loop
      vertex 0.164413 130.818 2
      vertex 0.946099 128.412 15
      vertex 0.946099 128.412 2
    endloop
  endfacet
  facet normal 0.587783 -0.809018 0
    outer loop
      vertex 3.90352 229.659 2
      vertex 5.95 231.146 15
      vertex 3.90352 229.659 15
    endloop
  endfacet
  facet normal 0.587783 -0.809018 0
    outer loop
      vertex 5.95 231.146 15
      vertex 3.90352 229.659 2
      vertex 5.95 231.146 2
    endloop
  endfacet
  facet normal 0.866026 -0.5 0
    outer loop
      vertex 0.946099 225.588 15
      vertex 2.21089 227.779 2
      vertex 2.21089 227.779 15
    endloop
  endfacet
  facet normal 0.866026 -0.5 0
    outer loop
      vertex 2.21089 227.779 2
      vertex 0.946099 225.588 15
      vertex 0.946099 225.588 2
    endloop
  endfacet
  facet normal -0.587784 -0.809018 0
    outer loop
      vertex 160.05 231.146 2
      vertex 162.096 229.659 15
      vertex 160.05 231.146 15
    endloop
  endfacet
  facet normal -0.587784 -0.809018 -0
    outer loop
      vertex 162.096 229.659 15
      vertex 160.05 231.146 2
      vertex 162.096 229.659 2
    endloop
  endfacet
  facet normal -0.743145 0.669131 0
    outer loop
      vertex 162.096 124.341 2
      vertex 163.789 126.221 15
      vertex 163.789 126.221 2
    endloop
  endfacet
  facet normal -0.743145 0.669131 0
    outer loop
      vertex 163.789 126.221 15
      vertex 162.096 124.341 2
      vertex 162.096 124.341 15
    endloop
  endfacet
  facet normal -0.994522 0.104531 0
    outer loop
      vertex 165.836 130.818 2
      vertex 166.1 133.333 15
      vertex 166.1 133.333 2
    endloop
  endfacet
  facet normal -0.994522 0.104531 0
    outer loop
      vertex 166.1 133.333 15
      vertex 165.836 130.818 2
      vertex 165.836 130.818 15
    endloop
  endfacet
  facet normal -0.866027 0.499997 0
    outer loop
      vertex 163.789 126.221 2
      vertex 165.054 128.412 15
      vertex 165.054 128.412 2
    endloop
  endfacet
  facet normal -0.866027 0.499997 0
    outer loop
      vertex 165.054 128.412 15
      vertex 163.789 126.221 2
      vertex 163.789 126.221 15
    endloop
  endfacet
  facet normal 0.743145 -0.66913 0
    outer loop
      vertex 2.21089 227.779 15
      vertex 3.90352 229.659 2
      vertex 3.90352 229.659 15
    endloop
  endfacet
  facet normal 0.743145 -0.66913 0
    outer loop
      vertex 3.90352 229.659 2
      vertex 2.21089 227.779 15
      vertex 2.21089 227.779 2
    endloop
  endfacet
  facet normal 0.951056 -0.309018 0
    outer loop
      vertex 0.164413 223.182 15
      vertex 0.946099 225.588 2
      vertex 0.946099 225.588 15
    endloop
  endfacet
  facet normal 0.951056 -0.309018 0
    outer loop
      vertex 0.946099 225.588 2
      vertex 0.164413 223.182 15
      vertex 0.164413 223.182 2
    endloop
  endfacet
  facet normal 0.406739 -0.913544 0
    outer loop
      vertex 5.95 231.146 2
      vertex 8.26089 232.174 15
      vertex 5.95 231.146 15
    endloop
  endfacet
  facet normal 0.406739 -0.913544 0
    outer loop
      vertex 8.26089 232.174 15
      vertex 5.95 231.146 2
      vertex 8.26089 232.174 2
    endloop
  endfacet
  facet normal 0.207909 -0.978148 0
    outer loop
      vertex 8.26089 232.174 2
      vertex 10.7352 232.7 15
      vertex 8.26089 232.174 15
    endloop
  endfacet
  facet normal 0.207909 -0.978148 0
    outer loop
      vertex 10.7352 232.7 15
      vertex 8.26089 232.174 2
      vertex 10.7352 232.7 2
    endloop
  endfacet
  facet normal -0.587786 0.809017 0
    outer loop
      vertex 162.096 124.341 2
      vertex 160.05 122.854 15
      vertex 162.096 124.341 15
    endloop
  endfacet
  facet normal -0.587786 0.809017 0
    outer loop
      vertex 160.05 122.854 15
      vertex 162.096 124.341 2
      vertex 160.05 122.854 2
    endloop
  endfacet
  facet normal -0.951056 0.30902 0
    outer loop
      vertex 165.054 128.412 2
      vertex 165.836 130.818 15
      vertex 165.836 130.818 2
    endloop
  endfacet
  facet normal -0.951056 0.30902 0
    outer loop
      vertex 165.836 130.818 15
      vertex 165.054 128.412 2
      vertex 165.054 128.412 15
    endloop
  endfacet
  facet normal -0.406739 -0.913544 0
    outer loop
      vertex 157.739 232.174 2
      vertex 160.05 231.146 15
      vertex 157.739 232.174 15
    endloop
  endfacet
  facet normal -0.406739 -0.913544 -0
    outer loop
      vertex 160.05 231.146 15
      vertex 157.739 232.174 2
      vertex 160.05 231.146 2
    endloop
  endfacet
  facet normal -0.866027 -0.499997 0
    outer loop
      vertex 165.054 225.588 2
      vertex 163.789 227.779 15
      vertex 163.789 227.779 2
    endloop
  endfacet
  facet normal -0.866027 -0.499997 0
    outer loop
      vertex 163.789 227.779 15
      vertex 165.054 225.588 2
      vertex 165.054 225.588 15
    endloop
  endfacet
  facet normal -0.951056 -0.30902 0
    outer loop
      vertex 165.836 223.182 2
      vertex 165.054 225.588 15
      vertex 165.054 225.588 2
    endloop
  endfacet
  facet normal -0.951056 -0.30902 0
    outer loop
      vertex 165.054 225.588 15
      vertex 165.836 223.182 2
      vertex 165.836 223.182 15
    endloop
  endfacet
endsolid OpenSCAD_Model
